<svg xmlns="http://www.w3.org/2000/svg" viewBox="0 0 1436.14 140.00" width="1436" height="140" role="img" aria-label="Rexin Dynamics">
<g fill="#111111" transform="translate(20.000,120.000) scale(0.14286,-0.14286)"><path transform="translate(0,0)" d="M57 0V700H384Q545 700 629.0 629.0Q713 558 713 436Q713 360 678.5 304.0Q644 248 581 216L728 0H476L357 176H293V0ZM293 354H379Q428 354 451.5 376.0Q475 398 475 436Q475 474 451.5 496.0Q428 518 379 518H293Z"></path>
<path transform="translate(745,0)" d="M57 0V700H626V522H289V440H585V270H289V178H639V0Z"></path>
<path transform="translate(1418,0)" d="M-8 0 245 353 1 700H266L385 524L501 700H755L512 362L770 0H500L379 187L261 0Z"></path>
<path transform="translate(2180,0)" d="M57 0V700H293V0Z"></path>
<path transform="translate(2530,0)" d="M57 0V700H251L517 382V700H747V0H553L287 318V0Z"></path></g>
<g fill="#E84808" transform="translate(530.286,120.000) scale(0.14286,-0.14286)"><path transform="translate(0,0)" d="M83 0V700H401Q515 700 602.0 656.5Q689 613 738.0 534.5Q787 456 787 350Q787 244 738.0 165.5Q689 87 602.0 43.5Q515 0 401 0ZM245 133H393Q463 133 514.5 159.5Q566 186 594.5 234.5Q623 283 623 350Q623 417 594.5 465.5Q566 514 514.5 540.5Q463 567 393 567H245Z"></path>
<path transform="translate(886,0)" d="M257 0V249L-14 700H158L344 389L532 700H691L419 248V0Z"></path>
<path transform="translate(1622,0)" d="M83 0V700H217L565 274V700H725V0H592L243 426V0Z"></path>
<path transform="translate(2490,0)" d="M-9 0 303 700H463L776 0H606L544 150H219L157 0ZM270 273H493L382 540Z"></path>
<path transform="translate(3316,0)" d="M83 0V700H217L479 265L737 700H870L872 0H720L719 419L513 74H440L235 412V0Z"></path>
<path transform="translate(4331,0)" d="M83 0V700H245V0Z"></path>
<path transform="translate(4719,0)" d="M418 -12Q337 -12 267.5 15.0Q198 42 147.0 90.5Q96 139 67.5 205.0Q39 271 39 350Q39 429 67.5 495.0Q96 561 147.5 609.5Q199 658 268.0 685.0Q337 712 419 712Q510 712 584.0 680.0Q658 648 707 588L603 492Q531 574 427 574Q361 574 310.5 545.5Q260 517 231.5 466.5Q203 416 203 350Q203 284 231.5 233.5Q260 183 310.5 154.5Q361 126 427 126Q531 126 603 209L707 113Q658 52 584.0 20.0Q510 -12 418 -12Z"></path>
<path transform="translate(5503,0)" d="M313 -12Q229 -12 152.0 10.5Q75 33 28 69L83 191Q127 159 189.0 138.5Q251 118 314 118Q386 118 417.5 139.0Q449 160 449 193Q449 221 427.0 237.5Q405 254 368.5 264.5Q332 275 289.0 284.5Q246 294 202.5 307.5Q159 321 122.5 343.5Q86 366 64.0 402.5Q42 439 42 494Q42 554 74.5 603.5Q107 653 172.5 682.5Q238 712 337 712Q403 712 467.0 696.0Q531 680 580 650L530 527Q481 555 431.5 568.5Q382 582 336 582Q264 582 233.5 558.5Q203 535 203 502Q203 475 225.0 458.5Q247 442 283.0 431.5Q319 421 362.5 412.0Q406 403 449.5 389.5Q493 376 529.5 354.0Q566 332 588.0 296.0Q610 260 610 205Q610 146 577.5 97.0Q545 48 479.0 18.0Q413 -12 313 -12Z"></path></g>
</svg>