<svg xmlns="http://www.w3.org/2000/svg" viewBox="0 0 1200 520" width="1200" height="520" role="presentation" aria-hidden="true">
<path d="M -40.0 156.0 C 384.0 36.0, 792.0 116.0, 1240.0 -104.0" fill="none" stroke="#E84808" stroke-width="2.40" stroke-opacity="0.305" stroke-linecap="round"></path>
<path d="M -40.0 168.9 C 386.4 51.3, 790.4 133.7, 1240.0 -89.5" fill="none" stroke="#E84808" stroke-width="2.34" stroke-opacity="0.321" stroke-linecap="round"></path>
<path d="M -40.0 181.8 C 388.8 66.6, 788.8 151.4, 1240.0 -75.0" fill="none" stroke="#E84808" stroke-width="2.27" stroke-opacity="0.336" stroke-linecap="round"></path>
<path d="M -40.0 194.7 C 391.2 81.9, 787.2 169.1, 1240.0 -60.5" fill="none" stroke="#E84808" stroke-width="2.21" stroke-opacity="0.352" stroke-linecap="round"></path>
<path d="M -40.0 207.6 C 393.6 97.2, 785.6 186.8, 1240.0 -46.0" fill="none" stroke="#E84808" stroke-width="2.14" stroke-opacity="0.367" stroke-linecap="round"></path>
<path d="M -40.0 220.5 C 396.0 112.5, 784.0 204.5, 1240.0 -31.5" fill="none" stroke="#E84808" stroke-width="2.08" stroke-opacity="0.383" stroke-linecap="round"></path>
<path d="M -40.0 233.4 C 398.4 127.8, 782.4 222.2, 1240.0 -17.0" fill="none" stroke="#E84808" stroke-width="2.02" stroke-opacity="0.399" stroke-linecap="round"></path>
<path d="M -40.0 246.3 C 400.8 143.1, 780.8 239.9, 1240.0 -2.5" fill="none" stroke="#E84808" stroke-width="1.95" stroke-opacity="0.414" stroke-linecap="round"></path>
<path d="M -40.0 259.2 C 403.2 158.4, 779.2 257.6, 1240.0 12.0" fill="none" stroke="#E84808" stroke-width="1.89" stroke-opacity="0.430" stroke-linecap="round"></path>
<path d="M -40.0 272.1 C 405.6 173.7, 777.6 275.3, 1240.0 26.5" fill="none" stroke="#E84808" stroke-width="1.82" stroke-opacity="0.445" stroke-linecap="round"></path>
<path d="M -40.0 285.0 C 408.0 189.0, 776.0 293.0, 1240.0 41.0" fill="none" stroke="#E84808" stroke-width="1.76" stroke-opacity="0.461" stroke-linecap="round"></path>
<path d="M -40.0 297.9 C 410.4 204.3, 774.4 310.7, 1240.0 55.5" fill="none" stroke="#E84808" stroke-width="1.70" stroke-opacity="0.477" stroke-linecap="round"></path>
<path d="M -40.0 310.8 C 412.8 219.6, 772.8 328.4, 1240.0 70.0" fill="none" stroke="#E84808" stroke-width="1.63" stroke-opacity="0.492" stroke-linecap="round"></path>
<path d="M -40.0 323.6 C 415.2 234.8, 771.2 346.0, 1240.0 84.4" fill="none" stroke="#E84808" stroke-width="1.57" stroke-opacity="0.492" stroke-linecap="round"></path>
<path d="M -40.0 336.5 C 417.6 250.1, 769.6 363.7, 1240.0 98.9" fill="none" stroke="#E84808" stroke-width="1.50" stroke-opacity="0.477" stroke-linecap="round"></path>
<path d="M -40.0 349.4 C 420.0 265.4, 768.0 381.4, 1240.0 113.4" fill="none" stroke="#E84808" stroke-width="1.44" stroke-opacity="0.461" stroke-linecap="round"></path>
<path d="M -40.0 362.3 C 422.4 280.7, 766.4 399.1, 1240.0 127.9" fill="none" stroke="#E84808" stroke-width="1.38" stroke-opacity="0.445" stroke-linecap="round"></path>
<path d="M -40.0 375.2 C 424.8 296.0, 764.8 416.8, 1240.0 142.4" fill="none" stroke="#E84808" stroke-width="1.31" stroke-opacity="0.430" stroke-linecap="round"></path>
<path d="M -40.0 388.1 C 427.2 311.3, 763.2 434.5, 1240.0 156.9" fill="none" stroke="#E84808" stroke-width="1.25" stroke-opacity="0.414" stroke-linecap="round"></path>
<path d="M -40.0 401.0 C 429.6 326.6, 761.6 452.2, 1240.0 171.4" fill="none" stroke="#E84808" stroke-width="1.18" stroke-opacity="0.399" stroke-linecap="round"></path>
<path d="M -40.0 413.9 C 432.0 341.9, 760.0 469.9, 1240.0 185.9" fill="none" stroke="#E84808" stroke-width="1.12" stroke-opacity="0.383" stroke-linecap="round"></path>
<path d="M -40.0 426.8 C 434.4 357.2, 758.4 487.6, 1240.0 200.4" fill="none" stroke="#E84808" stroke-width="1.06" stroke-opacity="0.367" stroke-linecap="round"></path>
<path d="M -40.0 439.7 C 436.8 372.5, 756.8 505.3, 1240.0 214.9" fill="none" stroke="#E84808" stroke-width="0.99" stroke-opacity="0.352" stroke-linecap="round"></path>
<path d="M -40.0 452.6 C 439.2 387.8, 755.2 523.0, 1240.0 229.4" fill="none" stroke="#E84808" stroke-width="0.93" stroke-opacity="0.336" stroke-linecap="round"></path>
<path d="M -40.0 465.5 C 441.6 403.1, 753.6 540.7, 1240.0 243.9" fill="none" stroke="#E84808" stroke-width="0.86" stroke-opacity="0.321" stroke-linecap="round"></path>
<path d="M -40.0 478.4 C 444.0 418.4, 752.0 558.4, 1240.0 258.4" fill="none" stroke="#E84808" stroke-width="0.80" stroke-opacity="0.305" stroke-linecap="round"></path>
</svg>